<svg width="66" height="66" viewBox="0 0 66 66" fill="none" xmlns="http://www.w3.org/2000/svg">
<path d="M54.615 22.2474C54.615 23.4024 54.5325 24.5299 54.395 25.6024C53.13 25.0524 51.755 24.7499 50.2975 24.7499C46.9425 24.7499 43.9725 26.3724 42.13 28.8474C40.26 26.3724 37.29 24.7499 33.935 24.7499C28.2975 24.7499 23.7325 29.3424 23.7325 35.0349C23.7325 42.4049 27.6375 48.0423 31.9825 51.8648C31.845 51.9473 31.7075 51.9749 31.57 52.0299C30.745 52.3324 29.37 52.3324 28.545 52.0299C21.4225 49.5824 5.5 39.4624 5.5 22.2474C5.5 14.6574 11.605 8.5249 19.14 8.5249C23.6225 8.5249 27.5825 10.6699 30.0575 13.9974C32.56 10.6699 36.52 8.5249 40.975 8.5249C48.51 8.5249 54.615 14.6574 54.615 22.2474Z" stroke="#292D32" stroke-width="3" stroke-linecap="round" stroke-linejoin="round"/>
<path d="M60.5 35.035C60.5 47.905 48.5926 55.495 43.2576 57.31C42.6251 57.53 41.6075 57.53 40.975 57.31C38.6925 56.54 35.2 54.6975 31.9825 51.865C27.6375 48.0425 23.7325 42.405 23.7325 35.035C23.7325 29.3425 28.2975 24.75 33.935 24.75C37.29 24.75 40.2601 26.3725 42.1301 28.8475C43.9726 26.3725 46.9426 24.75 50.2976 24.75C51.7551 24.75 53.13 25.0525 54.395 25.6025C57.9975 27.1975 60.5 30.8 60.5 35.035Z" stroke="#292D32" stroke-width="3" stroke-linecap="round" stroke-linejoin="round"/>
</svg>
