<svg width="26" height="26" viewBox="0 0 26 26" fill="none" xmlns="http://www.w3.org/2000/svg">
<path d="M23.0208 20.009L21.2333 20.4315C20.8325 20.529 20.5183 20.8323 20.4317 21.2331L20.0525 22.8256C19.8467 23.6923 18.7417 23.9631 18.1675 23.2806L14.9283 19.554C14.6683 19.2506 14.8092 18.774 15.1992 18.6765C17.1167 18.2106 18.8392 17.1381 20.1067 15.6106C20.3125 15.3615 20.6808 15.329 20.9083 15.5565L23.3133 17.9615C24.1367 18.7848 23.8442 19.814 23.0208 20.009Z" fill="black"/>
<path d="M2.92505 20.009L4.71255 20.4315C5.11339 20.529 5.42755 20.8323 5.51422 21.2331L5.89339 22.8256C6.09922 23.6923 7.20422 23.9631 7.77839 23.2806L11.0176 19.554C11.2776 19.2506 11.1367 18.774 10.7467 18.6765C8.82922 18.2106 7.10672 17.1381 5.83922 15.6106C5.63339 15.3615 5.26505 15.329 5.03755 15.5565L2.63255 17.9615C1.80922 18.7848 2.10172 19.814 2.92505 20.009Z" fill="black"/>
<path d="M13 2.1665C8.80746 2.1665 5.41663 5.55734 5.41663 9.74984C5.41663 11.3207 5.88246 12.7615 6.68413 13.964C7.85413 15.6973 9.70663 16.9215 11.8625 17.2357C12.2308 17.3007 12.61 17.3332 13 17.3332C13.39 17.3332 13.7691 17.3007 14.1375 17.2357C16.2933 16.9215 18.1458 15.6973 19.3158 13.964C20.1175 12.7615 20.5833 11.3207 20.5833 9.74984C20.5833 5.55734 17.1925 2.1665 13 2.1665ZM16.315 9.5115L15.4158 10.4107C15.2641 10.5623 15.1775 10.8548 15.2316 11.0715L15.4916 12.1873C15.6975 13.0648 15.2316 13.4115 14.4516 12.9457L13.3683 12.3065C13.1733 12.1873 12.8483 12.1873 12.6533 12.3065L11.57 12.9457C10.79 13.4007 10.3241 13.0648 10.53 12.1873L10.79 11.0715C10.8333 10.8657 10.7575 10.5623 10.6058 10.4107L9.68496 9.5115C9.15413 8.98067 9.32746 8.44984 10.0641 8.33067L11.2233 8.13567C11.4183 8.10317 11.6458 7.92984 11.7325 7.7565L12.3716 6.47817C12.7183 5.78484 13.2816 5.78484 13.6283 6.47817L14.2675 7.7565C14.3541 7.92984 14.5816 8.10317 14.7875 8.13567L15.9466 8.33067C16.6725 8.44984 16.8458 8.98067 16.315 9.5115Z" fill="black"/>
</svg>
