<svg width="19" height="19" viewBox="0 0 19 19" fill="none" xmlns="http://www.w3.org/2000/svg">
<path d="M9.49998 1.58325C5.1379 1.58325 1.58331 5.13783 1.58331 9.49992C1.58331 13.862 5.1379 17.4166 9.49998 17.4166C13.8621 17.4166 17.4166 13.862 17.4166 9.49992C17.4166 5.13783 13.8621 1.58325 9.49998 1.58325ZM13.2841 7.67908L8.7954 12.1678C8.68456 12.2787 8.53415 12.342 8.37581 12.342C8.21748 12.342 8.06706 12.2787 7.95623 12.1678L5.71581 9.92742C5.48623 9.69783 5.48623 9.31783 5.71581 9.08825C5.9454 8.85867 6.3254 8.85867 6.55498 9.08825L8.37581 10.9091L12.445 6.83992C12.6746 6.61034 13.0546 6.61034 13.2841 6.83992C13.5137 7.0695 13.5137 7.44158 13.2841 7.67908Z" fill="black"/>
</svg>
